<?xml version="1.0" encoding="UTF-8" standalone="no"?>
<!-- Generator: Adobe Illustrator 22.0.0, SVG Export Plug-In . SVG Version: 6.00 Build 0)  -->

<svg
   xmlns:dc="http://purl.org/dc/elements/1.1/"
   xmlns:cc="http://creativecommons.org/ns#"
   xmlns:rdf="http://www.w3.org/1999/02/22-rdf-syntax-ns#"
   xmlns:svg="http://www.w3.org/2000/svg"
   xmlns="http://www.w3.org/2000/svg"
   xmlns:xlink="http://www.w3.org/1999/xlink"
   xmlns:sodipodi="http://sodipodi.sourceforge.net/DTD/sodipodi-0.dtd"
   xmlns:inkscape="http://www.inkscape.org/namespaces/inkscape"
   version="1.1"
   id="Layer_1"
   x="0px"
   y="0px"
   viewBox="0 0 500 500"
   style="enable-background:new 0 0 500 500;"
   xml:space="preserve"
   sodipodi:docname="kyivlambda.svg"
   inkscape:version="0.92.3 (2405546, 2018-03-11)"><metadata
   id="metadata67"><rdf:RDF><cc:Work
       rdf:about=""><dc:format>image/svg+xml</dc:format><dc:type
         rdf:resource="http://purl.org/dc/dcmitype/StillImage" /><dc:title></dc:title></cc:Work></rdf:RDF></metadata><defs
   id="defs65" /><sodipodi:namedview
   pagecolor="#ffffff"
   bordercolor="#666666"
   borderopacity="1"
   objecttolerance="10"
   gridtolerance="10"
   guidetolerance="10"
   inkscape:pageopacity="0"
   inkscape:pageshadow="2"
   inkscape:window-width="2126"
   inkscape:window-height="1603"
   id="namedview63"
   showgrid="false"
   inkscape:zoom="3.776"
   inkscape:cx="247.0228"
   inkscape:cy="292.21771"
   inkscape:window-x="1247"
   inkscape:window-y="376"
   inkscape:window-maximized="0"
   inkscape:current-layer="Layer_1" />
<style
   type="text/css"
   id="style2">
	.st0{fill:none;}
	.st1{clip-path:url(#SVGID_2_);}
	.st2{fill:#E6E6E6;}
	.st3{fill:#453A62;}
	.st4{fill:#5E5086;}
	.st5{fill:#8F4E8B;}
</style>
<path
   class="st0"
   d="M212.4,118.1"
   id="path4" />
<g
   id="g16">
	<defs
   id="defs7">
		<path
   id="SVGID_1_"
   d="M171.1,252.2c-12.1-29.9-13.6-82.6,38.5-116.2c32.1-20.7,81.8-9.1,109.8,17.1    c22.1,20.7,29.2,59.9,21.4,86.3c-1.3,4.4-4.6,14-6.4,17.1c-19.6,33.5-5.7,35.7-2.1,34.9c3.1-0.6,8.8,14.6,16.8-42.4    c6-43-0.5-77.9-18-100c-19-24-44-31-80-31c-53,0-95.9,44.9-98,92c-1.1,24,12.5,77.7,19.5,81.4c15.7,2.1,9.3-9.3,7.1-17.8    C178.4,268.9,179.7,273.5,171.1,252.2z" />
	</defs>
	<clipPath
   id="SVGID_2_">
		<use
   xlink:href="#SVGID_1_"
   style="overflow:visible;"
   id="use9" />
	</clipPath>
	<g
   class="st1"
   clip-path="url(#SVGID_2_)"
   id="g14">
		<path
   class="st2"
   d="M253.8,126.1c48.7,0,88.3,39.6,88.3,88.3c0,10.3-1.7,20.3-5.2,29.8H170.7c-3.4-9.5-5.2-19.5-5.2-29.8    C165.5,165.7,205.1,126.1,253.8,126.1 M253.8,118.1c-53.2,0-96.3,43.1-96.3,96.3c0,13.4,2.7,26.2,7.7,37.8h177.1    c5-11.6,7.7-24.4,7.7-37.8C350,161.2,306.9,118.1,253.8,118.1L253.8,118.1z"
   id="path12" />
	</g>
</g>
<g
   id="g30"
   style="fill:#668000">
	
	<polygon
   class="st4"
   points="264.5,223 245.2,252.2 222.4,252.2 252.4,205.9 222.4,159.5 245.2,159.5 307.3,252.2 283.7,252.2 "
   id="polygon20"
   transform="matrix(1.2493743,0,0,1.2493743,-74.514056,-56.536245)"
   style="fill:#668000" />
	
</g>
<path
   class="st0"
   d="M350,287.9"
   id="path32" />
<path
   class="st0"
   d="M348.6,367"
   id="path34" />
<path
   class="st0"
   d="M268.8,264.3"
   id="path36" />
<path
   class="st0"
   d="M268.8,264.3"
   id="path38" />
<g
   id="g50">
	<g
   id="g46">
		<g
   id="g44">
			<polygon
   class="st3"
   points="248.7,263.6 173.2,263.6 153.2,320.7 202.4,320.7    "
   id="polygon40"
   style="fill:#445500" />
			<polygon
   class="st3"
   points="303.5,320.7 352.9,320.7 332.2,263.6 256.8,263.6    "
   id="polygon42"
   style="fill:#445500" />
		</g>
	</g>
	<polygon
   class="st3"
   points="253.1,270.7 221,325.6 253.1,359.2 285.2,325.6  "
   id="polygon48"
   style="fill:#445500" />
</g>
<path
   class="st0"
   d="M-46.6-14.9"
   id="path52" />
<path
   class="st0"
   d="M91,154.9"
   id="path54" />
<path
   class="st0"
   d="M89.6,234"
   id="path56" />
<path
   class="st0"
   d="M9.8,131.3"
   id="path58" />
<path
   class="st0"
   d="M9.8,131.3"
   id="path60" />
</svg>